<svg xmlns="http://www.w3.org/2000/svg" version="1.1" xmlns:xlink="http://www.w3.org/1999/xlink" xmlns:svgjs="http://svgjs.com/svgjs" width="512" height="512" x="0" y="0" viewBox="0 0 512.001 512.001" style="enable-background:new 0 0 512 512" xml:space="preserve" class=""><g><path d="M50.867 487.021c-9.546 0-15.449-3.892-18.721-7.169-3.281-3.281-7.19-9.207-7.169-18.797.06-30.337 44.249-89.278 54.667-99.614 6.547-6.488 17.106-6.477 23.632.055l47.226 47.226c6.52 6.52 6.541 17.085.055 23.632-10.336 10.418-69.277 54.607-99.614 54.667h-.076z" style="" fill="#ffde33" data-original="#ffde33"></path><path d="M50.867 487.021h.076c30.337-.06 89.278-44.249 99.614-54.667 6.488-6.547 6.465-17.112-.055-23.632l-23.613-23.613-94.743 94.743c3.272 3.276 9.175 7.169 18.721 7.169z" style="" fill="#ffbc33" data-original="#ffbc33"></path><path d="M16.752 291.615a16.747 16.747 0 0 1-15.15-23.893c10.51-22.285 24.755-42.559 42.341-60.255 39.13-39.015 89.654-61.17 142.32-62.435 6.76-.382 12.549 3.494 15.427 9.349a16.738 16.738 0 0 1-2.006 17.925c-22.891 28.293-41.305 59.737-54.732 93.459-2.976 7.479-10.87 11.792-18.759 10.243-33.325-6.46-69.636-1.515-102.258 13.982a16.633 16.633 0 0 1-7.183 1.625z" style="" fill="#e55639" data-original="#e55639" class=""></path><path d="M237.135 511.999a16.732 16.732 0 0 1-11.879-4.939 16.739 16.739 0 0 1-3.233-19.036c15.52-32.436 20.481-68.736 13.967-102.22a16.747 16.747 0 0 1 10.243-18.759c33.722-13.426 65.166-31.842 93.459-54.732a16.756 16.756 0 0 1 17.925-2.006 16.733 16.733 0 0 1 9.349 15.427c-1.265 52.666-23.42 103.19-62.38 142.265-17.749 17.641-38.024 31.886-60.309 42.396a16.686 16.686 0 0 1-7.142 1.604z" style="" fill="#cf4529" data-original="#cf4529" class=""></path><path d="M449.817 222.949c-4.41 0-8.678-1.745-11.84-4.907L293.955 74.023a16.725 16.725 0 0 1-4.732-14.25 16.74 16.74 0 0 1 8.591-12.314C347.667 20.442 401.259 4.529 457.104.157a50.87 50.87 0 0 1 39.97 14.768c10.576 10.571 15.956 25.152 14.763 40.002-4.372 55.833-20.285 109.415-47.296 159.257a16.742 16.742 0 0 1-14.724 8.765z" style="" fill="#e55639" data-original="#e55639" class=""></path><path d="M437.976 218.043a16.747 16.747 0 0 0 14.249 4.733 16.74 16.74 0 0 0 12.314-8.591c27.011-49.843 42.924-103.424 47.296-159.257 1.193-14.85-4.187-29.432-14.763-40.002L365.966 146.033l72.01 72.01z" style="" fill="#cf4529" data-original="#cf4529" class=""></path><path d="M470.34 203.046 308.952 41.658c-52.084 26.085-99.15 64.269-135.304 109.584-25.016 30.914-45.138 65.275-59.786 102.067-5.065 12.561-9.289 25.257-12.914 37.872l-53.73 32.174a16.761 16.761 0 0 0-8.019 12.314 16.748 16.748 0 0 0 4.781 13.895l118.454 118.454a16.726 16.726 0 0 0 13.895 4.782 16.76 16.76 0 0 0 12.314-8.019l32.174-53.729c12.611-3.625 25.301-7.845 37.801-12.887a393.514 393.514 0 0 0 102.05-59.742c45.41-36.231 83.587-83.291 109.672-135.377z" style="" fill="#e6eeff" data-original="#e6eeff" class=""></path><path d="m470.34 203.046-80.694-80.693-286.438 286.438 59.226 59.226a16.726 16.726 0 0 0 13.895 4.782 16.76 16.76 0 0 0 12.314-8.019l32.174-53.729c12.611-3.625 25.301-7.845 37.801-12.887a393.514 393.514 0 0 0 102.05-59.742c45.41-36.23 83.587-83.29 109.672-135.376z" style="" fill="#dae2f2" data-original="#dae2f2" class=""></path><path d="M292.696 286.262c-17.908 0-34.726-6.955-47.362-19.592v-.006h-.006c-12.636-12.636-19.593-29.454-19.593-47.362s6.955-34.73 19.598-47.367c26.113-26.118 68.606-26.113 94.729-.006 26.118 26.128 26.118 68.622 0 94.735-12.636 12.642-29.458 19.598-47.366 19.598z" style="" fill="#4da6ff" data-original="#4da6ff"></path><path d="M245.334 266.67c12.636 12.636 29.454 19.592 47.362 19.592s34.73-6.955 47.367-19.598c26.117-26.111 26.118-68.602.002-94.732l-94.732 94.732.001.006z" style="" fill="#4596e6" data-original="#4596e6" class=""></path><path d="M39.2 335.668a16.748 16.748 0 0 0 4.781 13.895l118.454 118.454a16.726 16.726 0 0 0 13.895 4.782 16.76 16.76 0 0 0 12.314-8.019l32.174-53.729h.001L100.95 291.18l-53.73 32.174a16.759 16.759 0 0 0-8.02 12.314z" style="" fill="#e55639" data-original="#e55639" class=""></path><path d="M162.434 468.017a16.726 16.726 0 0 0 13.895 4.782 16.76 16.76 0 0 0 12.314-8.019l32.174-53.729h.001l-59.935-59.935-57.676 57.676 59.227 59.225z" style="" fill="#cf4529" data-original="#cf4529" class=""></path></g></svg>